M48
;Layer_Color=9474304
;FILE_FORMAT=4:4
METRIC,LZ
;TYPE=PLATED
T01F00S00C0.7112
T02F00S00C0.8900
;TYPE=NON_PLATED
T03F00S00C3.2500
%
T01
X00535Y0016
Y00205
Y0025
X0068Y0018
Y0014
X0074
Y00095
X00795Y001
X0079484Y0012516
X00795Y0016
Y0019
X0083Y0016
Y00125
Y0008
X0042Y00095
Y0005
X00365
Y00125
Y00165
X0027Y00145
Y0025
X0022Y00205
X0018Y00235
X00155Y00155
X0013Y00145
X00155Y00095
X0022Y0005
X0042Y0025
X00055Y00255
Y00205
Y00175
Y0015
Y0012
X00015Y0014
X00015101Y00050243
T02
X0090095Y0011944
Y0013976
Y0016008
Y001804
X0091873Y0019056
Y0017024
Y0014992
Y001296
T03
X0094413Y000915
Y002185
M30
