G04*
G04 #@! TF.GenerationSoftware,Altium Limited,Altium Designer,25.2.1 (25)*
G04*
G04 Layer_Color=8388736*
%FSLAX45Y45*%
%MOMM*%
G71*
G04*
G04 #@! TF.SameCoordinates,8265950A-D21A-4FE0-9DEA-03CE8DDB5557*
G04*
G04*
G04 #@! TF.FilePolarity,Negative*
G04*
G01*
G75*
%ADD15R,2.03000X3.80000*%
%ADD19R,1.35000X0.95000*%
%ADD20R,0.90000X1.30000*%
%ADD21R,1.65160X1.45160*%
%ADD22R,0.90160X0.90160*%
%ADD23C,3.25000*%
%ADD24R,1.39000X1.39000*%
%ADD25C,1.39000*%
%ADD26C,1.37160*%
G36*
X885400Y1470900D02*
X885900Y1470800D01*
X886300Y1470700D01*
X886800Y1470600D01*
X887200Y1470400D01*
X887700Y1470200D01*
X888100Y1470000D01*
X888500Y1469800D01*
X888900Y1469500D01*
X889300Y1469300D01*
X889700Y1469000D01*
X890000Y1468700D01*
X890400Y1468400D01*
X890700Y1468000D01*
X891000Y1467700D01*
X891300Y1467300D01*
X891500Y1466900D01*
X891800Y1466500D01*
X892000Y1466100D01*
X892200Y1465700D01*
X892400Y1465200D01*
X892600Y1464800D01*
X892700Y1464300D01*
X892800Y1463900D01*
X892900Y1463400D01*
X893000Y1462900D01*
Y1462500D01*
Y1462000D01*
Y1438000D01*
Y1437500D01*
Y1437100D01*
X892900Y1436600D01*
X892800Y1436100D01*
X892700Y1435700D01*
X892600Y1435200D01*
X892400Y1434800D01*
X892200Y1434300D01*
X892000Y1433900D01*
X891800Y1433500D01*
X891500Y1433100D01*
X891300Y1432700D01*
X891000Y1432300D01*
X890700Y1432000D01*
X890400Y1431600D01*
X890000Y1431300D01*
X889700Y1431000D01*
X889300Y1430700D01*
X888900Y1430500D01*
X888500Y1430200D01*
X888100Y1430000D01*
X887700Y1429800D01*
X887200Y1429600D01*
X886800Y1429400D01*
X886300Y1429300D01*
X885900Y1429200D01*
X885400Y1429100D01*
X884900Y1429000D01*
X815100D01*
X814600Y1429100D01*
X814100Y1429200D01*
X813700Y1429300D01*
X813200Y1429400D01*
X812800Y1429600D01*
X812300Y1429800D01*
X811900Y1430000D01*
X811500Y1430200D01*
X811100Y1430500D01*
X810700Y1430700D01*
X810300Y1431000D01*
X810000Y1431300D01*
X809600Y1431600D01*
X809300Y1432000D01*
X809000Y1432300D01*
X808700Y1432700D01*
X808500Y1433100D01*
X808200Y1433500D01*
X808000Y1433900D01*
X807800Y1434300D01*
X807600Y1434800D01*
X807400Y1435200D01*
X807300Y1435700D01*
X807200Y1436100D01*
X807100Y1436600D01*
X807000Y1437100D01*
Y1437500D01*
Y1438000D01*
Y1462000D01*
Y1462500D01*
Y1462900D01*
X807100Y1463400D01*
X807200Y1463900D01*
X807300Y1464300D01*
X807400Y1464800D01*
X807600Y1465200D01*
X807800Y1465700D01*
X808000Y1466100D01*
X808200Y1466500D01*
X808500Y1466900D01*
X808700Y1467300D01*
X809000Y1467700D01*
X809300Y1468000D01*
X809600Y1468400D01*
X810000Y1468700D01*
X810300Y1469000D01*
X810700Y1469300D01*
X811100Y1469500D01*
X811500Y1469800D01*
X811900Y1470000D01*
X812300Y1470200D01*
X812800Y1470400D01*
X813200Y1470600D01*
X813700Y1470700D01*
X814100Y1470800D01*
X814600Y1470900D01*
X815100Y1471000D01*
X884900D01*
X885400Y1470900D01*
D02*
G37*
G36*
Y1520900D02*
X885900Y1520800D01*
X886300Y1520700D01*
X886800Y1520600D01*
X887200Y1520400D01*
X887700Y1520200D01*
X888100Y1520000D01*
X888500Y1519800D01*
X888900Y1519500D01*
X889300Y1519300D01*
X889700Y1519000D01*
X890000Y1518700D01*
X890400Y1518400D01*
X890700Y1518000D01*
X891000Y1517700D01*
X891300Y1517300D01*
X891500Y1516900D01*
X891800Y1516500D01*
X892000Y1516100D01*
X892200Y1515700D01*
X892400Y1515200D01*
X892600Y1514800D01*
X892700Y1514300D01*
X892800Y1513900D01*
X892900Y1513400D01*
X893000Y1512900D01*
Y1512500D01*
Y1512000D01*
Y1488000D01*
Y1487500D01*
Y1487100D01*
X892900Y1486600D01*
X892800Y1486100D01*
X892700Y1485700D01*
X892600Y1485200D01*
X892400Y1484800D01*
X892200Y1484300D01*
X892000Y1483900D01*
X891800Y1483500D01*
X891500Y1483100D01*
X891300Y1482700D01*
X891000Y1482300D01*
X890700Y1482000D01*
X890400Y1481600D01*
X890000Y1481300D01*
X889700Y1481000D01*
X889300Y1480700D01*
X888900Y1480500D01*
X888500Y1480200D01*
X888100Y1480000D01*
X887700Y1479800D01*
X887200Y1479600D01*
X886800Y1479400D01*
X886300Y1479300D01*
X885900Y1479200D01*
X885400Y1479100D01*
X884900Y1479000D01*
X815100D01*
X814600Y1479100D01*
X814100Y1479200D01*
X813700Y1479300D01*
X813200Y1479400D01*
X812800Y1479600D01*
X812300Y1479800D01*
X811900Y1480000D01*
X811500Y1480200D01*
X811100Y1480500D01*
X810700Y1480700D01*
X810300Y1481000D01*
X810000Y1481300D01*
X809600Y1481600D01*
X809300Y1482000D01*
X809000Y1482300D01*
X808700Y1482700D01*
X808500Y1483100D01*
X808200Y1483500D01*
X808000Y1483900D01*
X807800Y1484300D01*
X807600Y1484800D01*
X807400Y1485200D01*
X807300Y1485700D01*
X807200Y1486100D01*
X807100Y1486600D01*
X807000Y1487100D01*
Y1487500D01*
Y1488000D01*
Y1512000D01*
Y1512500D01*
Y1512900D01*
X807100Y1513400D01*
X807200Y1513900D01*
X807300Y1514300D01*
X807400Y1514800D01*
X807600Y1515200D01*
X807800Y1515700D01*
X808000Y1516100D01*
X808200Y1516500D01*
X808500Y1516900D01*
X808700Y1517300D01*
X809000Y1517700D01*
X809300Y1518000D01*
X809600Y1518400D01*
X810000Y1518700D01*
X810300Y1519000D01*
X810700Y1519300D01*
X811100Y1519500D01*
X811500Y1519800D01*
X811900Y1520000D01*
X812300Y1520200D01*
X812800Y1520400D01*
X813200Y1520600D01*
X813700Y1520700D01*
X814100Y1520800D01*
X814600Y1520900D01*
X815100Y1521000D01*
X884900D01*
X885400Y1520900D01*
D02*
G37*
G36*
Y1570900D02*
X885900Y1570800D01*
X886300Y1570700D01*
X886800Y1570600D01*
X887200Y1570400D01*
X887700Y1570200D01*
X888100Y1570000D01*
X888500Y1569800D01*
X888900Y1569500D01*
X889300Y1569300D01*
X889700Y1569000D01*
X890000Y1568700D01*
X890400Y1568400D01*
X890700Y1568000D01*
X891000Y1567700D01*
X891300Y1567300D01*
X891500Y1566900D01*
X891800Y1566500D01*
X892000Y1566100D01*
X892200Y1565700D01*
X892400Y1565200D01*
X892600Y1564800D01*
X892700Y1564300D01*
X892800Y1563900D01*
X892900Y1563400D01*
X893000Y1562900D01*
Y1562500D01*
Y1562000D01*
Y1538000D01*
Y1537500D01*
Y1537100D01*
X892900Y1536600D01*
X892800Y1536100D01*
X892700Y1535700D01*
X892600Y1535200D01*
X892400Y1534800D01*
X892200Y1534300D01*
X892000Y1533900D01*
X891800Y1533500D01*
X891500Y1533100D01*
X891300Y1532700D01*
X891000Y1532300D01*
X890700Y1532000D01*
X890400Y1531600D01*
X890000Y1531300D01*
X889700Y1531000D01*
X889300Y1530700D01*
X888900Y1530500D01*
X888500Y1530200D01*
X888100Y1530000D01*
X887700Y1529800D01*
X887200Y1529600D01*
X886800Y1529400D01*
X886300Y1529300D01*
X885900Y1529200D01*
X885400Y1529100D01*
X884900Y1529000D01*
X815100D01*
X814600Y1529100D01*
X814100Y1529200D01*
X813700Y1529300D01*
X813200Y1529400D01*
X812800Y1529600D01*
X812300Y1529800D01*
X811900Y1530000D01*
X811500Y1530200D01*
X811100Y1530500D01*
X810700Y1530700D01*
X810300Y1531000D01*
X810000Y1531300D01*
X809600Y1531600D01*
X809300Y1532000D01*
X809000Y1532300D01*
X808700Y1532700D01*
X808500Y1533100D01*
X808200Y1533500D01*
X808000Y1533900D01*
X807800Y1534300D01*
X807600Y1534800D01*
X807400Y1535200D01*
X807300Y1535700D01*
X807200Y1536100D01*
X807100Y1536600D01*
X807000Y1537100D01*
Y1537500D01*
Y1538000D01*
Y1562000D01*
Y1562500D01*
Y1562900D01*
X807100Y1563400D01*
X807200Y1563900D01*
X807300Y1564300D01*
X807400Y1564800D01*
X807600Y1565200D01*
X807800Y1565700D01*
X808000Y1566100D01*
X808200Y1566500D01*
X808500Y1566900D01*
X808700Y1567300D01*
X809000Y1567700D01*
X809300Y1568000D01*
X809600Y1568400D01*
X810000Y1568700D01*
X810300Y1569000D01*
X810700Y1569300D01*
X811100Y1569500D01*
X811500Y1569800D01*
X811900Y1570000D01*
X812300Y1570200D01*
X812800Y1570400D01*
X813200Y1570600D01*
X813700Y1570700D01*
X814100Y1570800D01*
X814600Y1570900D01*
X815100Y1571000D01*
X884900D01*
X885400Y1570900D01*
D02*
G37*
G36*
Y1620900D02*
X885900Y1620800D01*
X886300Y1620700D01*
X886800Y1620600D01*
X887200Y1620400D01*
X887700Y1620200D01*
X888100Y1620000D01*
X888500Y1619800D01*
X888900Y1619500D01*
X889300Y1619300D01*
X889700Y1619000D01*
X890000Y1618700D01*
X890400Y1618400D01*
X890700Y1618000D01*
X891000Y1617700D01*
X891300Y1617300D01*
X891500Y1616900D01*
X891800Y1616500D01*
X892000Y1616100D01*
X892200Y1615700D01*
X892400Y1615200D01*
X892600Y1614800D01*
X892700Y1614300D01*
X892800Y1613900D01*
X892900Y1613400D01*
X893000Y1612900D01*
Y1612500D01*
Y1612000D01*
Y1588000D01*
Y1587500D01*
Y1587100D01*
X892900Y1586600D01*
X892800Y1586100D01*
X892700Y1585700D01*
X892600Y1585200D01*
X892400Y1584800D01*
X892200Y1584300D01*
X892000Y1583900D01*
X891800Y1583500D01*
X891500Y1583100D01*
X891300Y1582700D01*
X891000Y1582300D01*
X890700Y1582000D01*
X890400Y1581600D01*
X890000Y1581300D01*
X889700Y1581000D01*
X889300Y1580700D01*
X888900Y1580500D01*
X888500Y1580200D01*
X888100Y1580000D01*
X887700Y1579800D01*
X887200Y1579600D01*
X886800Y1579400D01*
X886300Y1579300D01*
X885900Y1579200D01*
X885400Y1579100D01*
X884900Y1579000D01*
X815100D01*
X814600Y1579100D01*
X814100Y1579200D01*
X813700Y1579300D01*
X813200Y1579400D01*
X812800Y1579600D01*
X812300Y1579800D01*
X811900Y1580000D01*
X811500Y1580200D01*
X811100Y1580500D01*
X810700Y1580700D01*
X810300Y1581000D01*
X810000Y1581300D01*
X809600Y1581600D01*
X809300Y1582000D01*
X809000Y1582300D01*
X808700Y1582700D01*
X808500Y1583100D01*
X808200Y1583500D01*
X808000Y1583900D01*
X807800Y1584300D01*
X807600Y1584800D01*
X807400Y1585200D01*
X807300Y1585700D01*
X807200Y1586100D01*
X807100Y1586600D01*
X807000Y1587100D01*
Y1587500D01*
Y1588000D01*
Y1612000D01*
Y1612500D01*
Y1612900D01*
X807100Y1613400D01*
X807200Y1613900D01*
X807300Y1614300D01*
X807400Y1614800D01*
X807600Y1615200D01*
X807800Y1615700D01*
X808000Y1616100D01*
X808200Y1616500D01*
X808500Y1616900D01*
X808700Y1617300D01*
X809000Y1617700D01*
X809300Y1618000D01*
X809600Y1618400D01*
X810000Y1618700D01*
X810300Y1619000D01*
X810700Y1619300D01*
X811100Y1619500D01*
X811500Y1619800D01*
X811900Y1620000D01*
X812300Y1620200D01*
X812800Y1620400D01*
X813200Y1620600D01*
X813700Y1620700D01*
X814100Y1620800D01*
X814600Y1620900D01*
X815100Y1621000D01*
X884900D01*
X885400Y1620900D01*
D02*
G37*
G36*
X1052400Y1470900D02*
X1052900Y1470800D01*
X1053300Y1470700D01*
X1053800Y1470600D01*
X1054200Y1470400D01*
X1054700Y1470200D01*
X1055100Y1470000D01*
X1055500Y1469800D01*
X1055900Y1469500D01*
X1056300Y1469300D01*
X1056700Y1469000D01*
X1057000Y1468700D01*
X1057400Y1468400D01*
X1057700Y1468000D01*
X1058000Y1467700D01*
X1058300Y1467300D01*
X1058500Y1466900D01*
X1058800Y1466500D01*
X1059000Y1466100D01*
X1059200Y1465700D01*
X1059400Y1465200D01*
X1059600Y1464800D01*
X1059700Y1464300D01*
X1059800Y1463900D01*
X1059900Y1463400D01*
X1060000Y1462900D01*
Y1462500D01*
Y1462000D01*
Y1438000D01*
Y1437500D01*
Y1437100D01*
X1059900Y1436600D01*
X1059800Y1436100D01*
X1059700Y1435700D01*
X1059600Y1435200D01*
X1059400Y1434800D01*
X1059200Y1434300D01*
X1059000Y1433900D01*
X1058800Y1433500D01*
X1058500Y1433100D01*
X1058300Y1432700D01*
X1058000Y1432300D01*
X1057700Y1432000D01*
X1057400Y1431600D01*
X1057000Y1431300D01*
X1056700Y1431000D01*
X1056300Y1430700D01*
X1055900Y1430500D01*
X1055500Y1430200D01*
X1055100Y1430000D01*
X1054700Y1429800D01*
X1054200Y1429600D01*
X1053800Y1429400D01*
X1053300Y1429300D01*
X1052900Y1429200D01*
X1052400Y1429100D01*
X1051900Y1429000D01*
X982100D01*
X981600Y1429100D01*
X981100Y1429200D01*
X980700Y1429300D01*
X980200Y1429400D01*
X979800Y1429600D01*
X979300Y1429800D01*
X978900Y1430000D01*
X978500Y1430200D01*
X978100Y1430500D01*
X977700Y1430700D01*
X977300Y1431000D01*
X977000Y1431300D01*
X976600Y1431600D01*
X976300Y1432000D01*
X976000Y1432300D01*
X975700Y1432700D01*
X975500Y1433100D01*
X975200Y1433500D01*
X975000Y1433900D01*
X974800Y1434300D01*
X974600Y1434800D01*
X974400Y1435200D01*
X974300Y1435700D01*
X974200Y1436100D01*
X974100Y1436600D01*
X974000Y1437100D01*
Y1437500D01*
Y1438000D01*
Y1462000D01*
Y1462500D01*
Y1462900D01*
X974100Y1463400D01*
X974200Y1463900D01*
X974300Y1464300D01*
X974400Y1464800D01*
X974600Y1465200D01*
X974800Y1465700D01*
X975000Y1466100D01*
X975200Y1466500D01*
X975500Y1466900D01*
X975700Y1467300D01*
X976000Y1467700D01*
X976300Y1468000D01*
X976600Y1468400D01*
X977000Y1468700D01*
X977300Y1469000D01*
X977700Y1469300D01*
X978100Y1469500D01*
X978500Y1469800D01*
X978900Y1470000D01*
X979300Y1470200D01*
X979800Y1470400D01*
X980200Y1470600D01*
X980700Y1470700D01*
X981100Y1470800D01*
X981600Y1470900D01*
X982100Y1471000D01*
X1051900D01*
X1052400Y1470900D01*
D02*
G37*
G36*
Y1520900D02*
X1052900Y1520800D01*
X1053300Y1520700D01*
X1053800Y1520600D01*
X1054200Y1520400D01*
X1054700Y1520200D01*
X1055100Y1520000D01*
X1055500Y1519800D01*
X1055900Y1519500D01*
X1056300Y1519300D01*
X1056700Y1519000D01*
X1057000Y1518700D01*
X1057400Y1518400D01*
X1057700Y1518000D01*
X1058000Y1517700D01*
X1058300Y1517300D01*
X1058500Y1516900D01*
X1058800Y1516500D01*
X1059000Y1516100D01*
X1059200Y1515700D01*
X1059400Y1515200D01*
X1059600Y1514800D01*
X1059700Y1514300D01*
X1059800Y1513900D01*
X1059900Y1513400D01*
X1060000Y1512900D01*
Y1512500D01*
Y1512000D01*
Y1488000D01*
Y1487500D01*
Y1487100D01*
X1059900Y1486600D01*
X1059800Y1486100D01*
X1059700Y1485700D01*
X1059600Y1485200D01*
X1059400Y1484800D01*
X1059200Y1484300D01*
X1059000Y1483900D01*
X1058800Y1483500D01*
X1058500Y1483100D01*
X1058300Y1482700D01*
X1058000Y1482300D01*
X1057700Y1482000D01*
X1057400Y1481600D01*
X1057000Y1481300D01*
X1056700Y1481000D01*
X1056300Y1480700D01*
X1055900Y1480500D01*
X1055500Y1480200D01*
X1055100Y1480000D01*
X1054700Y1479800D01*
X1054200Y1479600D01*
X1053800Y1479400D01*
X1053300Y1479300D01*
X1052900Y1479200D01*
X1052400Y1479100D01*
X1051900Y1479000D01*
X982100D01*
X981600Y1479100D01*
X981100Y1479200D01*
X980700Y1479300D01*
X980200Y1479400D01*
X979800Y1479600D01*
X979300Y1479800D01*
X978900Y1480000D01*
X978500Y1480200D01*
X978100Y1480500D01*
X977700Y1480700D01*
X977300Y1481000D01*
X977000Y1481300D01*
X976600Y1481600D01*
X976300Y1482000D01*
X976000Y1482300D01*
X975700Y1482700D01*
X975500Y1483100D01*
X975200Y1483500D01*
X975000Y1483900D01*
X974800Y1484300D01*
X974600Y1484800D01*
X974400Y1485200D01*
X974300Y1485700D01*
X974200Y1486100D01*
X974100Y1486600D01*
X974000Y1487100D01*
Y1487500D01*
Y1488000D01*
Y1512000D01*
Y1512500D01*
Y1512900D01*
X974100Y1513400D01*
X974200Y1513900D01*
X974300Y1514300D01*
X974400Y1514800D01*
X974600Y1515200D01*
X974800Y1515700D01*
X975000Y1516100D01*
X975200Y1516500D01*
X975500Y1516900D01*
X975700Y1517300D01*
X976000Y1517700D01*
X976300Y1518000D01*
X976600Y1518400D01*
X977000Y1518700D01*
X977300Y1519000D01*
X977700Y1519300D01*
X978100Y1519500D01*
X978500Y1519800D01*
X978900Y1520000D01*
X979300Y1520200D01*
X979800Y1520400D01*
X980200Y1520600D01*
X980700Y1520700D01*
X981100Y1520800D01*
X981600Y1520900D01*
X982100Y1521000D01*
X1051900D01*
X1052400Y1520900D01*
D02*
G37*
G36*
Y1570900D02*
X1052900Y1570800D01*
X1053300Y1570700D01*
X1053800Y1570600D01*
X1054200Y1570400D01*
X1054700Y1570200D01*
X1055100Y1570000D01*
X1055500Y1569800D01*
X1055900Y1569500D01*
X1056300Y1569300D01*
X1056700Y1569000D01*
X1057000Y1568700D01*
X1057400Y1568400D01*
X1057700Y1568000D01*
X1058000Y1567700D01*
X1058300Y1567300D01*
X1058500Y1566900D01*
X1058800Y1566500D01*
X1059000Y1566100D01*
X1059200Y1565700D01*
X1059400Y1565200D01*
X1059600Y1564800D01*
X1059700Y1564300D01*
X1059800Y1563900D01*
X1059900Y1563400D01*
X1060000Y1562900D01*
Y1562500D01*
Y1562000D01*
Y1538000D01*
Y1537500D01*
Y1537100D01*
X1059900Y1536600D01*
X1059800Y1536100D01*
X1059700Y1535700D01*
X1059600Y1535200D01*
X1059400Y1534800D01*
X1059200Y1534300D01*
X1059000Y1533900D01*
X1058800Y1533500D01*
X1058500Y1533100D01*
X1058300Y1532700D01*
X1058000Y1532300D01*
X1057700Y1532000D01*
X1057400Y1531600D01*
X1057000Y1531300D01*
X1056700Y1531000D01*
X1056300Y1530700D01*
X1055900Y1530500D01*
X1055500Y1530200D01*
X1055100Y1530000D01*
X1054700Y1529800D01*
X1054200Y1529600D01*
X1053800Y1529400D01*
X1053300Y1529300D01*
X1052900Y1529200D01*
X1052400Y1529100D01*
X1051900Y1529000D01*
X982100D01*
X981600Y1529100D01*
X981100Y1529200D01*
X980700Y1529300D01*
X980200Y1529400D01*
X979800Y1529600D01*
X979300Y1529800D01*
X978900Y1530000D01*
X978500Y1530200D01*
X978100Y1530500D01*
X977700Y1530700D01*
X977300Y1531000D01*
X977000Y1531300D01*
X976600Y1531600D01*
X976300Y1532000D01*
X976000Y1532300D01*
X975700Y1532700D01*
X975500Y1533100D01*
X975200Y1533500D01*
X975000Y1533900D01*
X974800Y1534300D01*
X974600Y1534800D01*
X974400Y1535200D01*
X974300Y1535700D01*
X974200Y1536100D01*
X974100Y1536600D01*
X974000Y1537100D01*
Y1537500D01*
Y1538000D01*
Y1562000D01*
Y1562500D01*
Y1562900D01*
X974100Y1563400D01*
X974200Y1563900D01*
X974300Y1564300D01*
X974400Y1564800D01*
X974600Y1565200D01*
X974800Y1565700D01*
X975000Y1566100D01*
X975200Y1566500D01*
X975500Y1566900D01*
X975700Y1567300D01*
X976000Y1567700D01*
X976300Y1568000D01*
X976600Y1568400D01*
X977000Y1568700D01*
X977300Y1569000D01*
X977700Y1569300D01*
X978100Y1569500D01*
X978500Y1569800D01*
X978900Y1570000D01*
X979300Y1570200D01*
X979800Y1570400D01*
X980200Y1570600D01*
X980700Y1570700D01*
X981100Y1570800D01*
X981600Y1570900D01*
X982100Y1571000D01*
X1051900D01*
X1052400Y1570900D01*
D02*
G37*
G36*
Y1620900D02*
X1052900Y1620800D01*
X1053300Y1620700D01*
X1053800Y1620600D01*
X1054200Y1620400D01*
X1054700Y1620200D01*
X1055100Y1620000D01*
X1055500Y1619800D01*
X1055900Y1619500D01*
X1056300Y1619300D01*
X1056700Y1619000D01*
X1057000Y1618700D01*
X1057400Y1618400D01*
X1057700Y1618000D01*
X1058000Y1617700D01*
X1058300Y1617300D01*
X1058500Y1616900D01*
X1058800Y1616500D01*
X1059000Y1616100D01*
X1059200Y1615700D01*
X1059400Y1615200D01*
X1059600Y1614800D01*
X1059700Y1614300D01*
X1059800Y1613900D01*
X1059900Y1613400D01*
X1060000Y1612900D01*
Y1612500D01*
Y1612000D01*
Y1588000D01*
Y1587500D01*
Y1587100D01*
X1059900Y1586600D01*
X1059800Y1586100D01*
X1059700Y1585700D01*
X1059600Y1585200D01*
X1059400Y1584800D01*
X1059200Y1584300D01*
X1059000Y1583900D01*
X1058800Y1583500D01*
X1058500Y1583100D01*
X1058300Y1582700D01*
X1058000Y1582300D01*
X1057700Y1582000D01*
X1057400Y1581600D01*
X1057000Y1581300D01*
X1056700Y1581000D01*
X1056300Y1580700D01*
X1055900Y1580500D01*
X1055500Y1580200D01*
X1055100Y1580000D01*
X1054700Y1579800D01*
X1054200Y1579600D01*
X1053800Y1579400D01*
X1053300Y1579300D01*
X1052900Y1579200D01*
X1052400Y1579100D01*
X1051900Y1579000D01*
X982100D01*
X981600Y1579100D01*
X981100Y1579200D01*
X980700Y1579300D01*
X980200Y1579400D01*
X979800Y1579600D01*
X979300Y1579800D01*
X978900Y1580000D01*
X978500Y1580200D01*
X978100Y1580500D01*
X977700Y1580700D01*
X977300Y1581000D01*
X977000Y1581300D01*
X976600Y1581600D01*
X976300Y1582000D01*
X976000Y1582300D01*
X975700Y1582700D01*
X975500Y1583100D01*
X975200Y1583500D01*
X975000Y1583900D01*
X974800Y1584300D01*
X974600Y1584800D01*
X974400Y1585200D01*
X974300Y1585700D01*
X974200Y1586100D01*
X974100Y1586600D01*
X974000Y1587100D01*
Y1587500D01*
Y1588000D01*
Y1612000D01*
Y1612500D01*
Y1612900D01*
X974100Y1613400D01*
X974200Y1613900D01*
X974300Y1614300D01*
X974400Y1614800D01*
X974600Y1615200D01*
X974800Y1615700D01*
X975000Y1616100D01*
X975200Y1616500D01*
X975500Y1616900D01*
X975700Y1617300D01*
X976000Y1617700D01*
X976300Y1618000D01*
X976600Y1618400D01*
X977000Y1618700D01*
X977300Y1619000D01*
X977700Y1619300D01*
X978100Y1619500D01*
X978500Y1619800D01*
X978900Y1620000D01*
X979300Y1620200D01*
X979800Y1620400D01*
X980200Y1620600D01*
X980700Y1620700D01*
X981100Y1620800D01*
X981600Y1620900D01*
X982100Y1621000D01*
X1051900D01*
X1052400Y1620900D01*
D02*
G37*
D15*
X3200000Y2500000D02*
D03*
X4650000D02*
D03*
X6000000D02*
D03*
X4650000Y500000D02*
D03*
X3200000D02*
D03*
D19*
X1450000Y2425000D02*
D03*
Y2575000D02*
D03*
D20*
X1255000Y500000D02*
D03*
X1045000D02*
D03*
X1805000D02*
D03*
X1595000D02*
D03*
D21*
X6500000Y1597500D02*
D03*
Y1402500D02*
D03*
X7100000Y1597500D02*
D03*
Y1402500D02*
D03*
X7700000Y1597500D02*
D03*
Y1402500D02*
D03*
D22*
X350000Y1550000D02*
D03*
Y1400000D02*
D03*
D23*
X9441300Y915000D02*
D03*
Y2185000D02*
D03*
D24*
X9187300Y1905600D02*
D03*
D25*
X9009500Y1804000D02*
D03*
X9187300Y1702400D02*
D03*
X9009500Y1600800D02*
D03*
X9187300Y1499200D02*
D03*
X9009500Y1397600D02*
D03*
X9187300Y1296000D02*
D03*
X9009500Y1194400D02*
D03*
D26*
X3650000Y500000D02*
D03*
Y1650000D02*
D03*
Y1250000D02*
D03*
X8300000Y1600000D02*
D03*
X4200000Y2500000D02*
D03*
X1800000Y2350000D02*
D03*
X550000Y2550000D02*
D03*
Y2050000D02*
D03*
Y1750000D02*
D03*
X1300000Y1450000D02*
D03*
X550000Y1200000D02*
D03*
Y1500000D02*
D03*
X8300000Y1250000D02*
D03*
Y800000D02*
D03*
X7400000Y1400000D02*
D03*
Y950000D02*
D03*
X4200000Y500000D02*
D03*
Y950000D02*
D03*
X1550000D02*
D03*
Y1550000D02*
D03*
X7950000Y1000000D02*
D03*
X7948400Y1251600D02*
D03*
X7950000Y1900000D02*
D03*
Y1600000D02*
D03*
X6800000Y1800000D02*
D03*
Y1400000D02*
D03*
X5350000Y1600000D02*
D03*
Y2500000D02*
D03*
Y2050000D02*
D03*
X2700000Y2500000D02*
D03*
Y1450000D02*
D03*
X2200000Y2050000D02*
D03*
Y500000D02*
D03*
X151005Y502431D02*
D03*
X150000Y1400000D02*
D03*
M02*
