G04*
G04 #@! TF.GenerationSoftware,Altium Limited,Altium Designer,25.2.1 (25)*
G04*
G04 Layer_Color=8421504*
%FSLAX45Y45*%
%MOMM*%
G71*
G04*
G04 #@! TF.SameCoordinates,8265950A-D21A-4FE0-9DEA-03CE8DDB5557*
G04*
G04*
G04 #@! TF.FilePolarity,Positive*
G04*
G01*
G75*
%ADD15R,2.03000X3.80000*%
%ADD16R,1.55000X1.35000*%
G04:AMPARAMS|DCode=17|XSize=0.76mm|YSize=0.32mm|CornerRadius=0.04mm|HoleSize=0mm|Usage=FLASHONLY|Rotation=0.000|XOffset=0mm|YOffset=0mm|HoleType=Round|Shape=RoundedRectangle|*
%AMROUNDEDRECTD17*
21,1,0.76000,0.24000,0,0,0.0*
21,1,0.68000,0.32000,0,0,0.0*
1,1,0.08000,0.34000,-0.12000*
1,1,0.08000,-0.34000,-0.12000*
1,1,0.08000,-0.34000,0.12000*
1,1,0.08000,0.34000,0.12000*
%
%ADD17ROUNDEDRECTD17*%
%ADD18R,0.80000X0.80000*%
%ADD19R,1.35000X0.95000*%
%ADD20R,0.90000X1.30000*%
D15*
X3200000Y2500000D02*
D03*
X4650000D02*
D03*
X6000000D02*
D03*
X4650000Y500000D02*
D03*
X3200000D02*
D03*
D16*
X6500000Y1597500D02*
D03*
Y1402500D02*
D03*
X7100000Y1597500D02*
D03*
Y1402500D02*
D03*
X7700000Y1597500D02*
D03*
Y1402500D02*
D03*
D17*
X850000Y1600000D02*
D03*
Y1550000D02*
D03*
Y1500000D02*
D03*
Y1450000D02*
D03*
X1017000D02*
D03*
Y1500000D02*
D03*
Y1550000D02*
D03*
Y1600000D02*
D03*
D18*
X350000Y1550000D02*
D03*
Y1400000D02*
D03*
D19*
X1450000Y2425000D02*
D03*
Y2575000D02*
D03*
D20*
X1255000Y500000D02*
D03*
X1045000D02*
D03*
X1805000D02*
D03*
X1595000D02*
D03*
M02*
