G04*
G04 #@! TF.GenerationSoftware,Altium Limited,Altium Designer,25.2.1 (25)*
G04*
G04 Layer_Color=16711935*
%FSLAX45Y45*%
%MOMM*%
G71*
G04*
G04 #@! TF.SameCoordinates,8265950A-D21A-4FE0-9DEA-03CE8DDB5557*
G04*
G04*
G04 #@! TF.FilePolarity,Negative*
G04*
G01*
G75*
%ADD23C,3.25000*%
%ADD24R,1.39000X1.39000*%
%ADD25C,1.39000*%
%ADD26C,1.37160*%
D23*
X9441300Y915000D02*
D03*
Y2185000D02*
D03*
D24*
X9187300Y1905600D02*
D03*
D25*
X9009500Y1804000D02*
D03*
X9187300Y1702400D02*
D03*
X9009500Y1600800D02*
D03*
X9187300Y1499200D02*
D03*
X9009500Y1397600D02*
D03*
X9187300Y1296000D02*
D03*
X9009500Y1194400D02*
D03*
D26*
X3650000Y500000D02*
D03*
Y1650000D02*
D03*
Y1250000D02*
D03*
X8300000Y1600000D02*
D03*
X4200000Y2500000D02*
D03*
X1800000Y2350000D02*
D03*
X550000Y2550000D02*
D03*
Y2050000D02*
D03*
Y1750000D02*
D03*
X1300000Y1450000D02*
D03*
X550000Y1200000D02*
D03*
Y1500000D02*
D03*
X8300000Y1250000D02*
D03*
Y800000D02*
D03*
X7400000Y1400000D02*
D03*
Y950000D02*
D03*
X4200000Y500000D02*
D03*
Y950000D02*
D03*
X1550000D02*
D03*
Y1550000D02*
D03*
X7950000Y1000000D02*
D03*
X7948400Y1251600D02*
D03*
X7950000Y1900000D02*
D03*
Y1600000D02*
D03*
X6800000Y1800000D02*
D03*
Y1400000D02*
D03*
X5350000Y1600000D02*
D03*
Y2500000D02*
D03*
Y2050000D02*
D03*
X2700000Y2500000D02*
D03*
Y1450000D02*
D03*
X2200000Y2050000D02*
D03*
Y500000D02*
D03*
X151005Y502431D02*
D03*
X150000Y1400000D02*
D03*
M02*
