G04*
G04 #@! TF.GenerationSoftware,Altium Limited,Altium Designer,25.2.1 (25)*
G04*
G04 Layer_Physical_Order=2*
G04 Layer_Color=16711680*
%FSLAX45Y45*%
%MOMM*%
G71*
G04*
G04 #@! TF.SameCoordinates,8265950A-D21A-4FE0-9DEA-03CE8DDB5557*
G04*
G04*
G04 #@! TF.FilePolarity,Positive*
G04*
G01*
G75*
%ADD14C,0.25400*%
%ADD23C,3.25000*%
%ADD24R,1.39000X1.39000*%
%ADD25C,1.39000*%
%ADD27C,0.20320*%
%ADD28C,1.27000*%
G36*
X71892Y1367647D02*
X82927Y1348533D01*
X98533Y1332927D01*
X116333Y1322651D01*
Y579200D01*
X99539Y569504D01*
X83933Y553898D01*
X72897Y534784D01*
X70320Y525165D01*
X50000Y527840D01*
Y1370839D01*
X70320Y1373514D01*
X71892Y1367647D01*
D02*
G37*
G36*
X9950000Y50000D02*
X50000D01*
Y477022D01*
X70320Y479697D01*
X72897Y470078D01*
X83933Y450964D01*
X99539Y435358D01*
X118652Y424323D01*
X139970Y418611D01*
X162040D01*
X183359Y424323D01*
X202472Y435358D01*
X218078Y450964D01*
X229113Y470078D01*
X234825Y491396D01*
Y513466D01*
X229113Y534784D01*
X218078Y553898D01*
X202472Y569504D01*
X183667Y580361D01*
Y1322651D01*
X201467Y1332927D01*
X217073Y1348533D01*
X228108Y1367647D01*
X233820Y1388965D01*
Y1411035D01*
X228108Y1432353D01*
X217073Y1451467D01*
X201467Y1467073D01*
X182353Y1478108D01*
X161035Y1483820D01*
X138965D01*
X117647Y1478108D01*
X98533Y1467073D01*
X82927Y1451467D01*
X71892Y1432353D01*
X70320Y1426486D01*
X50000Y1429161D01*
Y2950000D01*
X9950000D01*
Y50000D01*
D02*
G37*
%LPC*%
G36*
X9459806Y2372900D02*
X9422793D01*
X9386492Y2365679D01*
X9352296Y2351515D01*
X9321521Y2330951D01*
X9295348Y2304779D01*
X9274785Y2274004D01*
X9260621Y2239808D01*
X9253400Y2203506D01*
Y2166494D01*
X9260621Y2130192D01*
X9274785Y2095996D01*
X9295348Y2065221D01*
X9321521Y2039049D01*
X9352296Y2018485D01*
X9386492Y2004321D01*
X9422793Y1997100D01*
X9459806D01*
X9496108Y2004321D01*
X9530304Y2018485D01*
X9561079Y2039049D01*
X9587251Y2065221D01*
X9607815Y2095996D01*
X9621979Y2130192D01*
X9629200Y2166494D01*
Y2203506D01*
X9621979Y2239808D01*
X9607815Y2274004D01*
X9587251Y2304779D01*
X9561079Y2330951D01*
X9530304Y2351515D01*
X9496108Y2365679D01*
X9459806Y2372900D01*
D02*
G37*
G36*
X9277120Y1995420D02*
X9097480D01*
Y1870455D01*
X9094711Y1868512D01*
X9077160Y1863365D01*
X9064651Y1875874D01*
X9044169Y1887699D01*
X9021325Y1893820D01*
X8997675D01*
X8974831Y1887699D01*
X8954349Y1875874D01*
X8937626Y1859151D01*
X8925801Y1838669D01*
X8919680Y1815825D01*
Y1792175D01*
X8925801Y1769331D01*
X8937626Y1748849D01*
X8954349Y1732126D01*
X8974831Y1720301D01*
X8997675Y1714180D01*
X9021325D01*
X9044169Y1720301D01*
X9064651Y1732126D01*
X9081374Y1748849D01*
X9093199Y1769331D01*
X9099320Y1792175D01*
X9099320Y1815780D01*
X9115505Y1815780D01*
X9277120D01*
Y1995420D01*
D02*
G37*
G36*
X561035Y2633820D02*
X538965D01*
X517647Y2628108D01*
X498533Y2617073D01*
X482927Y2601467D01*
X471892Y2582353D01*
X466180Y2561035D01*
Y2538965D01*
X471892Y2517647D01*
X482927Y2498533D01*
X498533Y2482927D01*
X516333Y2472651D01*
Y2127349D01*
X498533Y2117073D01*
X482927Y2101467D01*
X471892Y2082353D01*
X466180Y2061035D01*
Y2038965D01*
X471892Y2017647D01*
X482927Y1998533D01*
X498533Y1982927D01*
X516333Y1972651D01*
Y1827349D01*
X498533Y1817073D01*
X482927Y1801467D01*
X471892Y1782353D01*
X466180Y1761035D01*
Y1738965D01*
X471892Y1717647D01*
X482927Y1698533D01*
X498533Y1682927D01*
X517647Y1671892D01*
X538965Y1666180D01*
X561035D01*
X582353Y1671892D01*
X601467Y1682927D01*
X617073Y1698533D01*
X628108Y1717647D01*
X633820Y1738965D01*
Y1761035D01*
X628108Y1782353D01*
X617073Y1801467D01*
X601467Y1817073D01*
X583667Y1827349D01*
Y1972651D01*
X601467Y1982927D01*
X617073Y1998533D01*
X628108Y2017647D01*
X633820Y2038965D01*
Y2061035D01*
X628108Y2082353D01*
X617073Y2101467D01*
X601467Y2117073D01*
X583667Y2127349D01*
Y2472651D01*
X601467Y2482927D01*
X617073Y2498533D01*
X628108Y2517647D01*
X633820Y2538965D01*
Y2561035D01*
X628108Y2582353D01*
X617073Y2601467D01*
X601467Y2617073D01*
X582353Y2628108D01*
X561035Y2633820D01*
D02*
G37*
G36*
X9199125Y1792220D02*
X9175475D01*
X9152631Y1786099D01*
X9132149Y1774274D01*
X9115426Y1757551D01*
X9103601Y1737069D01*
X9097480Y1714225D01*
Y1690575D01*
X9103601Y1667731D01*
X9115426Y1647249D01*
X9132149Y1630526D01*
X9152631Y1618701D01*
X9175475Y1612580D01*
X9199125D01*
X9221969Y1618701D01*
X9242451Y1630526D01*
X9259174Y1647249D01*
X9270999Y1667731D01*
X9277120Y1690575D01*
Y1714225D01*
X9270999Y1737069D01*
X9259174Y1757551D01*
X9242451Y1774274D01*
X9221969Y1786099D01*
X9199125Y1792220D01*
D02*
G37*
G36*
X9021325Y1690620D02*
X9019660D01*
Y1610960D01*
X9099320D01*
Y1612625D01*
X9093199Y1635469D01*
X9081374Y1655951D01*
X9064651Y1672674D01*
X9044169Y1684499D01*
X9021325Y1690620D01*
D02*
G37*
G36*
X8999340D02*
X8997675D01*
X8974831Y1684499D01*
X8954349Y1672674D01*
X8937626Y1655951D01*
X8925801Y1635469D01*
X8919680Y1612625D01*
Y1610960D01*
X8999340D01*
Y1690620D01*
D02*
G37*
G36*
X7961035Y1983820D02*
X7938965D01*
X7917647Y1978108D01*
X7898533Y1967073D01*
X7882927Y1951467D01*
X7871892Y1932353D01*
X7866180Y1911035D01*
Y1888965D01*
X7871892Y1867647D01*
X7882927Y1848533D01*
X7898533Y1832927D01*
X7916333Y1822651D01*
Y1677349D01*
X7898533Y1667073D01*
X7882927Y1651467D01*
X7871892Y1632353D01*
X7866180Y1611035D01*
Y1588965D01*
X7871892Y1567647D01*
X7882927Y1548533D01*
X7898533Y1532927D01*
X7917647Y1521892D01*
X7938965Y1516180D01*
X7961035D01*
X7982353Y1521892D01*
X8001467Y1532927D01*
X8017073Y1548533D01*
X8028108Y1567647D01*
X8033820Y1588965D01*
Y1611035D01*
X8028108Y1632353D01*
X8017073Y1651467D01*
X8001467Y1667073D01*
X7983667Y1677349D01*
Y1822651D01*
X8001467Y1832927D01*
X8017073Y1848533D01*
X8028108Y1867647D01*
X8033820Y1888965D01*
Y1911035D01*
X8028108Y1932353D01*
X8017073Y1951467D01*
X8001467Y1967073D01*
X7982353Y1978108D01*
X7961035Y1983820D01*
D02*
G37*
G36*
X5361035Y2583820D02*
X5338965D01*
X5317647Y2578108D01*
X5298533Y2567073D01*
X5282927Y2551467D01*
X5271892Y2532353D01*
X5266180Y2511035D01*
Y2488965D01*
X5271892Y2467647D01*
X5282927Y2448533D01*
X5298533Y2432927D01*
X5316333Y2422651D01*
Y2127349D01*
X5298533Y2117073D01*
X5282927Y2101467D01*
X5271892Y2082353D01*
X5266180Y2061035D01*
Y2038965D01*
X5271892Y2017647D01*
X5282927Y1998533D01*
X5298533Y1982927D01*
X5316333Y1972651D01*
Y1677349D01*
X5298533Y1667073D01*
X5282927Y1651467D01*
X5271892Y1632353D01*
X5266180Y1611035D01*
Y1588965D01*
X5271892Y1567647D01*
X5282927Y1548533D01*
X5298533Y1532927D01*
X5317647Y1521892D01*
X5338965Y1516180D01*
X5361035D01*
X5382353Y1521892D01*
X5401467Y1532927D01*
X5417073Y1548533D01*
X5428108Y1567647D01*
X5433820Y1588965D01*
Y1611035D01*
X5428108Y1632353D01*
X5417073Y1651467D01*
X5401467Y1667073D01*
X5383667Y1677349D01*
Y1972651D01*
X5401467Y1982927D01*
X5417073Y1998533D01*
X5428108Y2017647D01*
X5433820Y2038965D01*
Y2061035D01*
X5428108Y2082353D01*
X5417073Y2101467D01*
X5401467Y2117073D01*
X5383667Y2127349D01*
Y2422651D01*
X5401467Y2432927D01*
X5417073Y2448533D01*
X5428108Y2467647D01*
X5433820Y2488965D01*
Y2511035D01*
X5428108Y2532353D01*
X5417073Y2551467D01*
X5401467Y2567073D01*
X5382353Y2578108D01*
X5361035Y2583820D01*
D02*
G37*
G36*
X9099320Y1590640D02*
X9019660D01*
Y1510980D01*
X9021325D01*
X9044169Y1517101D01*
X9064651Y1528926D01*
X9081374Y1545649D01*
X9093199Y1566131D01*
X9099320Y1588975D01*
Y1590640D01*
D02*
G37*
G36*
X8999340D02*
X8919680D01*
Y1588975D01*
X8925801Y1566131D01*
X8937626Y1545649D01*
X8954349Y1528926D01*
X8974831Y1517101D01*
X8997675Y1510980D01*
X8999340D01*
Y1590640D01*
D02*
G37*
G36*
X9199125Y1589020D02*
X9197460D01*
Y1509360D01*
X9277120D01*
Y1511025D01*
X9270999Y1533869D01*
X9259174Y1554351D01*
X9242451Y1571074D01*
X9221969Y1582899D01*
X9199125Y1589020D01*
D02*
G37*
G36*
X9177140D02*
X9175475D01*
X9152631Y1582899D01*
X9132149Y1571074D01*
X9115426Y1554351D01*
X9103601Y1533869D01*
X9097480Y1511025D01*
Y1509360D01*
X9177140D01*
Y1589020D01*
D02*
G37*
G36*
X9277120Y1489040D02*
X9197460D01*
Y1409380D01*
X9199125D01*
X9221969Y1415501D01*
X9242451Y1427326D01*
X9259174Y1444049D01*
X9270999Y1464531D01*
X9277120Y1487375D01*
Y1489040D01*
D02*
G37*
G36*
X9177140D02*
X9097480D01*
Y1487375D01*
X9103601Y1464531D01*
X9115426Y1444049D01*
X9132149Y1427326D01*
X9152631Y1415501D01*
X9175475Y1409380D01*
X9177140D01*
Y1489040D01*
D02*
G37*
G36*
X2711035Y2583820D02*
X2688965D01*
X2667647Y2578108D01*
X2648533Y2567073D01*
X2632927Y2551467D01*
X2621892Y2532353D01*
X2616180Y2511035D01*
Y2488965D01*
X2621892Y2467647D01*
X2632927Y2448533D01*
X2648533Y2432927D01*
X2666333Y2422651D01*
Y1527349D01*
X2648533Y1517073D01*
X2632927Y1501467D01*
X2621892Y1482353D01*
X2616180Y1461035D01*
Y1438965D01*
X2621892Y1417647D01*
X2632927Y1398533D01*
X2648533Y1382927D01*
X2667647Y1371892D01*
X2688965Y1366180D01*
X2711035D01*
X2732353Y1371892D01*
X2751467Y1382927D01*
X2767073Y1398533D01*
X2778108Y1417647D01*
X2783820Y1438965D01*
Y1461035D01*
X2778108Y1482353D01*
X2767073Y1501467D01*
X2751467Y1517073D01*
X2733667Y1527349D01*
Y2422651D01*
X2751467Y2432927D01*
X2767073Y2448533D01*
X2778108Y2467647D01*
X2783820Y2488965D01*
Y2511035D01*
X2778108Y2532353D01*
X2767073Y2551467D01*
X2751467Y2567073D01*
X2732353Y2578108D01*
X2711035Y2583820D01*
D02*
G37*
G36*
X6811035Y1883820D02*
X6788965D01*
X6767647Y1878108D01*
X6748533Y1867073D01*
X6732927Y1851467D01*
X6721892Y1832353D01*
X6716180Y1811035D01*
Y1788965D01*
X6721892Y1767647D01*
X6732927Y1748533D01*
X6748533Y1732927D01*
X6766333Y1722651D01*
Y1477349D01*
X6748533Y1467073D01*
X6732927Y1451467D01*
X6721892Y1432353D01*
X6716180Y1411035D01*
Y1388965D01*
X6721892Y1367647D01*
X6732927Y1348533D01*
X6748533Y1332927D01*
X6767647Y1321892D01*
X6788965Y1316180D01*
X6811035D01*
X6832353Y1321892D01*
X6851467Y1332927D01*
X6867073Y1348533D01*
X6878108Y1367647D01*
X6883820Y1388965D01*
Y1411035D01*
X6878108Y1432353D01*
X6867073Y1451467D01*
X6851467Y1467073D01*
X6833667Y1477349D01*
Y1722651D01*
X6851467Y1732927D01*
X6867073Y1748533D01*
X6878108Y1767647D01*
X6883820Y1788965D01*
Y1811035D01*
X6878108Y1832353D01*
X6867073Y1851467D01*
X6851467Y1867073D01*
X6832353Y1878108D01*
X6811035Y1883820D01*
D02*
G37*
G36*
X9021325Y1487420D02*
X8997675D01*
X8974831Y1481299D01*
X8954349Y1469474D01*
X8937626Y1452751D01*
X8925801Y1432269D01*
X8919680Y1409425D01*
Y1385775D01*
X8925801Y1362931D01*
X8937626Y1342449D01*
X8954349Y1325726D01*
X8974831Y1313901D01*
X8997675Y1307780D01*
X9021325D01*
X9044169Y1313901D01*
X9064651Y1325726D01*
X9081374Y1342449D01*
X9093199Y1362931D01*
X9099320Y1385775D01*
Y1409425D01*
X9093199Y1432269D01*
X9081374Y1452751D01*
X9064651Y1469474D01*
X9044169Y1481299D01*
X9021325Y1487420D01*
D02*
G37*
G36*
X9199125Y1385820D02*
X9175475D01*
X9152631Y1379699D01*
X9132149Y1367874D01*
X9115426Y1351151D01*
X9103601Y1330669D01*
X9097480Y1307825D01*
Y1284175D01*
X9103601Y1261331D01*
X9115426Y1240849D01*
X9132149Y1224126D01*
X9152631Y1212301D01*
X9175475Y1206180D01*
X9199125D01*
X9221969Y1212301D01*
X9242451Y1224126D01*
X9259174Y1240849D01*
X9270999Y1261331D01*
X9277120Y1284175D01*
Y1307825D01*
X9270999Y1330669D01*
X9259174Y1351151D01*
X9242451Y1367874D01*
X9221969Y1379699D01*
X9199125Y1385820D01*
D02*
G37*
G36*
X9021325Y1284220D02*
X8997675D01*
X8974831Y1278099D01*
X8954349Y1266274D01*
X8937626Y1249551D01*
X8925801Y1229069D01*
X8919680Y1206225D01*
Y1182575D01*
X8925801Y1159731D01*
X8937626Y1139249D01*
X8954349Y1122526D01*
X8974831Y1110701D01*
X8997675Y1104580D01*
X9021325D01*
X9044169Y1110701D01*
X9064651Y1122526D01*
X9081374Y1139249D01*
X9093199Y1159731D01*
X9099320Y1182575D01*
Y1206225D01*
X9093199Y1229069D01*
X9081374Y1249551D01*
X9064651Y1266274D01*
X9044169Y1278099D01*
X9021325Y1284220D01*
D02*
G37*
G36*
X7959435Y1335420D02*
X7937365D01*
X7916047Y1329708D01*
X7896933Y1318673D01*
X7881327Y1303067D01*
X7870292Y1283953D01*
X7864580Y1262635D01*
Y1240565D01*
X7870292Y1219247D01*
X7881327Y1200133D01*
X7896933Y1184527D01*
X7916047Y1173492D01*
X7916333Y1173415D01*
Y1077349D01*
X7898533Y1067073D01*
X7882927Y1051467D01*
X7871892Y1032353D01*
X7866180Y1011035D01*
Y988965D01*
X7871892Y967647D01*
X7882927Y948533D01*
X7898533Y932927D01*
X7917647Y921892D01*
X7938965Y916180D01*
X7961035D01*
X7982353Y921892D01*
X8001467Y932927D01*
X8017073Y948533D01*
X8028108Y967647D01*
X8033820Y988965D01*
Y1011035D01*
X8028108Y1032353D01*
X8017073Y1051467D01*
X8001467Y1067073D01*
X7983667Y1077349D01*
Y1175174D01*
X7999867Y1184527D01*
X8015473Y1200133D01*
X8026508Y1219247D01*
X8032220Y1240565D01*
Y1262635D01*
X8026508Y1283953D01*
X8015473Y1303067D01*
X7999867Y1318673D01*
X7980753Y1329708D01*
X7959435Y1335420D01*
D02*
G37*
G36*
X7411035Y1483820D02*
X7388965D01*
X7367647Y1478108D01*
X7348533Y1467073D01*
X7332927Y1451467D01*
X7321892Y1432353D01*
X7316180Y1411035D01*
Y1388965D01*
X7321892Y1367647D01*
X7332927Y1348533D01*
X7348533Y1332927D01*
X7367647Y1321892D01*
X7368923Y1321550D01*
Y1028450D01*
X7367647Y1028108D01*
X7348533Y1017073D01*
X7332927Y1001467D01*
X7321892Y982353D01*
X7316180Y961035D01*
Y938965D01*
X7321892Y917647D01*
X7332927Y898533D01*
X7348533Y882927D01*
X7367647Y871892D01*
X7388965Y866180D01*
X7411035D01*
X7432353Y871892D01*
X7451467Y882927D01*
X7467073Y898533D01*
X7478108Y917647D01*
X7483820Y938965D01*
Y961035D01*
X7478108Y982353D01*
X7467073Y1001467D01*
X7451467Y1017073D01*
X7432353Y1028108D01*
X7431077Y1028450D01*
Y1321550D01*
X7432353Y1321892D01*
X7451467Y1332927D01*
X7467073Y1348533D01*
X7478108Y1367647D01*
X7483820Y1388965D01*
Y1411035D01*
X7478108Y1432353D01*
X7467073Y1451467D01*
X7451467Y1467073D01*
X7432353Y1478108D01*
X7411035Y1483820D01*
D02*
G37*
G36*
X1561035Y1633820D02*
X1538965D01*
X1517647Y1628108D01*
X1498533Y1617073D01*
X1482927Y1601467D01*
X1471892Y1582353D01*
X1466180Y1561035D01*
Y1538965D01*
X1471892Y1517647D01*
X1482927Y1498533D01*
X1498533Y1482927D01*
X1517647Y1471892D01*
X1518923Y1471550D01*
Y1028450D01*
X1517647Y1028108D01*
X1498533Y1017073D01*
X1482927Y1001467D01*
X1471892Y982353D01*
X1466180Y961035D01*
Y938965D01*
X1471892Y917647D01*
X1482927Y898533D01*
X1498533Y882927D01*
X1517647Y871892D01*
X1538965Y866180D01*
X1561035D01*
X1582353Y871892D01*
X1601467Y882927D01*
X1617073Y898533D01*
X1628108Y917647D01*
X1633820Y938965D01*
Y961035D01*
X1628108Y982353D01*
X1617073Y1001467D01*
X1601467Y1017073D01*
X1582353Y1028108D01*
X1581077Y1028450D01*
Y1471550D01*
X1582353Y1471892D01*
X1601467Y1482927D01*
X1617073Y1498533D01*
X1628108Y1517647D01*
X1633820Y1538965D01*
Y1561035D01*
X1628108Y1582353D01*
X1617073Y1601467D01*
X1601467Y1617073D01*
X1582353Y1628108D01*
X1561035Y1633820D01*
D02*
G37*
G36*
X9459806Y1102900D02*
X9422793D01*
X9386492Y1095679D01*
X9352296Y1081515D01*
X9321521Y1060951D01*
X9295348Y1034779D01*
X9274785Y1004004D01*
X9260621Y969808D01*
X9253400Y933506D01*
Y896494D01*
X9260621Y860192D01*
X9274785Y825996D01*
X9295348Y795221D01*
X9321521Y769048D01*
X9352296Y748485D01*
X9386492Y734321D01*
X9422793Y727100D01*
X9459806D01*
X9496108Y734321D01*
X9530304Y748485D01*
X9561079Y769048D01*
X9587251Y795221D01*
X9607815Y825996D01*
X9621979Y860192D01*
X9629200Y896494D01*
Y933506D01*
X9621979Y969808D01*
X9607815Y1004004D01*
X9587251Y1034779D01*
X9561079Y1060951D01*
X9530304Y1081515D01*
X9496108Y1095679D01*
X9459806Y1102900D01*
D02*
G37*
G36*
X8311035Y1333820D02*
X8288965D01*
X8267647Y1328108D01*
X8248533Y1317073D01*
X8232927Y1301467D01*
X8221892Y1282353D01*
X8216180Y1261035D01*
Y1238965D01*
X8221892Y1217647D01*
X8232927Y1198533D01*
X8248533Y1182927D01*
X8267647Y1171892D01*
X8268923Y1171550D01*
Y878450D01*
X8267647Y878108D01*
X8248533Y867073D01*
X8232927Y851467D01*
X8221892Y832353D01*
X8216180Y811035D01*
Y788965D01*
X8221892Y767647D01*
X8232927Y748533D01*
X8248533Y732927D01*
X8267647Y721892D01*
X8288965Y716180D01*
X8311035D01*
X8332353Y721892D01*
X8351467Y732927D01*
X8367073Y748533D01*
X8378108Y767647D01*
X8383820Y788965D01*
Y811035D01*
X8378108Y832353D01*
X8367073Y851467D01*
X8351467Y867073D01*
X8332353Y878108D01*
X8331077Y878450D01*
Y1171550D01*
X8332353Y1171892D01*
X8351467Y1182927D01*
X8367073Y1198533D01*
X8378108Y1217647D01*
X8383820Y1238965D01*
Y1261035D01*
X8378108Y1282353D01*
X8367073Y1301467D01*
X8351467Y1317073D01*
X8332353Y1328108D01*
X8311035Y1333820D01*
D02*
G37*
G36*
X4211035Y1033820D02*
X4188965D01*
X4167647Y1028108D01*
X4148533Y1017073D01*
X4132927Y1001467D01*
X4121892Y982353D01*
X4116180Y961035D01*
Y938965D01*
X4121892Y917647D01*
X4132927Y898533D01*
X4148533Y882927D01*
X4167647Y871892D01*
X4168923Y871550D01*
Y578450D01*
X4167647Y578108D01*
X4148533Y567073D01*
X4132927Y551467D01*
X4121892Y532353D01*
X4116180Y511035D01*
Y488965D01*
X4121892Y467647D01*
X4132927Y448533D01*
X4148533Y432927D01*
X4167647Y421892D01*
X4188965Y416180D01*
X4211035D01*
X4232353Y421892D01*
X4251467Y432927D01*
X4267073Y448533D01*
X4278108Y467647D01*
X4283820Y488965D01*
Y511035D01*
X4278108Y532353D01*
X4267073Y551467D01*
X4251467Y567073D01*
X4232353Y578108D01*
X4231077Y578450D01*
Y871550D01*
X4232353Y871892D01*
X4251467Y882927D01*
X4267073Y898533D01*
X4278108Y917647D01*
X4283820Y938965D01*
Y961035D01*
X4278108Y982353D01*
X4267073Y1001467D01*
X4251467Y1017073D01*
X4232353Y1028108D01*
X4211035Y1033820D01*
D02*
G37*
G36*
X3661035Y1733820D02*
X3638965D01*
X3617647Y1728108D01*
X3598533Y1717073D01*
X3582927Y1701467D01*
X3571892Y1682353D01*
X3566180Y1661035D01*
Y1638965D01*
X3571892Y1617647D01*
X3582927Y1598533D01*
X3598533Y1582927D01*
X3616333Y1572651D01*
Y1327349D01*
X3598533Y1317073D01*
X3582927Y1301467D01*
X3571892Y1282353D01*
X3566180Y1261035D01*
Y1238965D01*
X3571892Y1217647D01*
X3582927Y1198533D01*
X3598533Y1182927D01*
X3616333Y1172651D01*
Y577349D01*
X3598533Y567073D01*
X3582927Y551467D01*
X3571892Y532353D01*
X3566180Y511035D01*
Y488965D01*
X3571892Y467647D01*
X3582927Y448533D01*
X3598533Y432927D01*
X3617647Y421892D01*
X3638965Y416180D01*
X3661035D01*
X3682353Y421892D01*
X3701467Y432927D01*
X3717073Y448533D01*
X3728108Y467647D01*
X3733820Y488965D01*
Y511035D01*
X3728108Y532353D01*
X3717073Y551467D01*
X3701467Y567073D01*
X3683667Y577349D01*
Y1172651D01*
X3701467Y1182927D01*
X3717073Y1198533D01*
X3728108Y1217647D01*
X3733820Y1238965D01*
Y1261035D01*
X3728108Y1282353D01*
X3717073Y1301467D01*
X3701467Y1317073D01*
X3683667Y1327349D01*
Y1572651D01*
X3701467Y1582927D01*
X3717073Y1598533D01*
X3728108Y1617647D01*
X3733820Y1638965D01*
Y1661035D01*
X3728108Y1682353D01*
X3717073Y1701467D01*
X3701467Y1717073D01*
X3682353Y1728108D01*
X3661035Y1733820D01*
D02*
G37*
G36*
X2211035Y2133820D02*
X2188965D01*
X2167647Y2128108D01*
X2148533Y2117073D01*
X2132927Y2101467D01*
X2121892Y2082353D01*
X2116180Y2061035D01*
Y2038965D01*
X2121892Y2017647D01*
X2132927Y1998533D01*
X2148533Y1982927D01*
X2166333Y1972651D01*
Y577349D01*
X2148533Y567073D01*
X2132927Y551467D01*
X2121892Y532353D01*
X2116180Y511035D01*
Y488965D01*
X2121892Y467647D01*
X2132927Y448533D01*
X2148533Y432927D01*
X2167647Y421892D01*
X2188965Y416180D01*
X2211035D01*
X2232353Y421892D01*
X2251467Y432927D01*
X2267073Y448533D01*
X2278108Y467647D01*
X2283820Y488965D01*
Y511035D01*
X2278108Y532353D01*
X2267073Y551467D01*
X2251467Y567073D01*
X2233667Y577349D01*
Y1972651D01*
X2251467Y1982927D01*
X2267073Y1998533D01*
X2278108Y2017647D01*
X2283820Y2038965D01*
Y2061035D01*
X2278108Y2082353D01*
X2267073Y2101467D01*
X2251467Y2117073D01*
X2232353Y2128108D01*
X2211035Y2133820D01*
D02*
G37*
%LPD*%
D14*
X3650000Y1250000D02*
Y1650000D01*
Y500000D02*
Y1250000D01*
X550000Y2050000D02*
Y2550000D01*
Y1750000D02*
Y2050000D01*
X7950000Y1000000D02*
Y1250000D01*
X7948400Y1251600D02*
X7950000Y1250000D01*
Y1600000D02*
Y1900000D01*
X6800000Y1400000D02*
Y1800000D01*
X5350000Y1600000D02*
Y2050000D01*
Y2500000D01*
X2700000Y1450000D02*
Y2500000D01*
X2200000Y500000D02*
Y2050000D01*
X150000Y501426D02*
X151005Y502431D01*
X150000Y501426D02*
Y1400000D01*
D23*
X9441300Y915000D02*
D03*
Y2185000D02*
D03*
D24*
X9187300Y1905600D02*
D03*
D25*
X9009500Y1804000D02*
D03*
X9187300Y1702400D02*
D03*
X9009500Y1600800D02*
D03*
X9187300Y1499200D02*
D03*
X9009500Y1397600D02*
D03*
X9187300Y1296000D02*
D03*
X9009500Y1194400D02*
D03*
D27*
X8300000Y800000D02*
Y1250000D01*
X7400000Y950000D02*
Y1400000D01*
X4200000Y500000D02*
Y950000D01*
X1550000D02*
Y1550000D01*
D28*
X3650000Y500000D02*
D03*
Y1650000D02*
D03*
Y1250000D02*
D03*
X8300000Y1600000D02*
D03*
X4200000Y2500000D02*
D03*
X1800000Y2350000D02*
D03*
X550000Y2550000D02*
D03*
Y2050000D02*
D03*
Y1750000D02*
D03*
X1300000Y1450000D02*
D03*
X550000Y1200000D02*
D03*
Y1500000D02*
D03*
X8300000Y1250000D02*
D03*
Y800000D02*
D03*
X7400000Y1400000D02*
D03*
Y950000D02*
D03*
X4200000Y500000D02*
D03*
Y950000D02*
D03*
X1550000D02*
D03*
Y1550000D02*
D03*
X7950000Y1000000D02*
D03*
X7948400Y1251600D02*
D03*
X7950000Y1900000D02*
D03*
Y1600000D02*
D03*
X6800000Y1800000D02*
D03*
Y1400000D02*
D03*
X5350000Y1600000D02*
D03*
Y2500000D02*
D03*
Y2050000D02*
D03*
X2700000Y2500000D02*
D03*
Y1450000D02*
D03*
X2200000Y2050000D02*
D03*
Y500000D02*
D03*
X151005Y502431D02*
D03*
X150000Y1400000D02*
D03*
M02*
